Coordinates
version=1
nRows=21
nColumns=34
inDegrees=no

Units are S.I. units (second, meters, Newtons, ...)
If the header above contains a line with 'inDegrees', this indicates whether rotational values are in degrees (yes) or radians (no).

endheader
time	pelvis_tilt	pelvis_list	pelvis_rotation	pelvis_tx	pelvis_ty	pelvis_tz	hip_flexion_r	hip_adduction_r	hip_rotation_r	knee_angle_r	ankle_angle_r	subtalar_angle_r	mtp_angle_r	hip_flexion_l	hip_adduction_l	hip_rotation_l	knee_angle_l	ankle_angle_l	subtalar_angle_l	mtp_angle_l	lumbar_extension	lumbar_bending	lumbar_rotation	arm_flex_r	arm_add_r	arm_rot_r	elbow_flex_r	pro_sup_r	arm_flex_l	arm_add_l	arm_rot_l	elbow_flex_l	pro_sup_l
0	0.227605	0.0192016	0.0590396	-0.577573	0.566558	-0.613689	1.32301	-0.323472	0.178135	1.71517	0.0581865	-0.610865	-0.00241763	1.37034	-0.167481	0.196375	1.67127	-0.247071	-0.610865	-0.00241763	-0.392485	0.00922156	-0.075129	-0.000754949	-0.118102	-0.172528	2.07508	1.6723	-0.0414502	-0.0961739	-0.180516	2.04215	1.79026
0.01	0.227553	0.0188807	0.0593273	-0.577531	0.566644	-0.613768	1.32277	-0.323625	0.177859	1.7151	0.0584673	-0.610865	-0.00241763	1.37027	-0.167221	0.19687	1.67135	-0.24552	-0.610865	-0.00241763	-0.39171	0.00883005	-0.0741538	-0.00149498	-0.118486	-0.173938	2.0737	1.6719	-0.0406755	-0.0958828	-0.179609	2.04095	1.79156
0.02	0.227829	0.0189624	0.059269	-0.577553	0.566718	-0.613802	1.32249	-0.323637	0.177871	1.715	0.0582086	-0.610865	-0.00241763	1.36981	-0.167103	0.196806	1.67125	-0.245243	-0.610865	-0.00241763	-0.391955	0.00848844	-0.0729708	-0.00199296	-0.118629	-0.175091	2.07355	1.67145	-0.0397769	-0.0958286	-0.178608	2.04014	1.79191
0.03	0.228417	0.01925	0.0591046	-0.577625	0.566776	-0.613823	1.32209	-0.323696	0.178109	1.71492	0.0578599	-0.610865	-0.00241763	1.36917	-0.16689	0.196674	1.67103	-0.247334	-0.610865	-0.00241763	-0.393176	0.00852143	-0.0719622	-0.00208026	-0.118672	-0.175833	2.07447	1.67175	-0.0389741	-0.0958958	-0.1778	2.0399	1.79126
0.04	0.229228	0.0193944	0.0589734	-0.577722	0.566841	-0.61385	1.32134	-0.323724	0.178229	1.71483	0.0579167	-0.610865	-0.00241763	1.36842	-0.166633	0.196741	1.67078	-0.25009	-0.610865	-0.00241763	-0.394975	0.00893117	-0.0713032	-0.00170698	-0.118856	-0.176256	2.07559	1.67334	-0.0383175	-0.0958944	-0.177487	2.04011	1.79061
0.05	0.230203	0.0195436	0.058755	-0.577843	0.566928	-0.613859	1.3203	-0.323595	0.178241	1.71467	0.0580059	-0.610865	-0.00241763	1.36726	-0.166544	0.196525	1.67053	-0.250667	-0.610865	-0.00241763	-0.397064	0.00911651	-0.0707949	-0.00104238	-0.119155	-0.176592	2.07633	1.67527	-0.037482	-0.0958666	-0.177664	2.04049	1.79087
0.06	0.230984	0.0198283	0.0585473	-0.577954	0.567002	-0.613868	1.31957	-0.323532	0.178344	1.71453	0.057596	-0.610865	-0.00241763	1.36617	-0.166455	0.196167	1.67029	-0.249821	-0.610865	-0.00241763	-0.398811	0.00892189	-0.0702473	-0.000502453	-0.119458	-0.177014	2.07664	1.67593	-0.0363347	-0.0962154	-0.177644	2.04071	1.7918
0.07	0.231376	0.0200382	0.0584199	-0.578039	0.567058	-0.613891	1.31936	-0.323521	0.178429	1.7144	0.0567829	-0.610865	-0.00241763	1.36561	-0.166276	0.196063	1.67004	-0.249763	-0.610865	-0.00241763	-0.399889	0.00869845	-0.0695346	-0.000220661	-0.119836	-0.177401	2.07654	1.67535	-0.0350573	-0.0973967	-0.17651	2.04062	1.79251
0.08	0.231854	0.0202241	0.058167	-0.57814	0.567168	-0.61388	1.31896	-0.32323	0.178479	1.71407	0.0561191	-0.610865	-0.00241763	1.36488	-0.166265	0.195801	1.66967	-0.250133	-0.610865	-0.00241763	-0.40101	0.00830714	-0.0682554	-0.000150759	-0.120409	-0.177991	2.07622	1.67401	-0.0333963	-0.0990777	-0.173967	2.04016	1.79291
0.09	0.232713	0.0205463	0.0578027	-0.57827	0.567343	-0.613825	1.31796	-0.322778	0.178564	1.7136	0.056089	-0.610865	-0.00241763	1.36356	-0.166421	0.195225	1.66922	-0.249961	-0.610865	-0.00241763	-0.402806	0.00775431	-0.0669073	0.000134904	-0.121198	-0.178465	2.07588	1.67324	-0.0314869	-0.100178	-0.171671	2.03997	1.79273
0.1	0.233781	0.0208442	0.0574784	-0.578412	0.567515	-0.613764	1.3167	-0.322491	0.178445	1.71317	0.0560095	-0.610865	-0.00241763	1.3621	-0.166589	0.194688	1.66885	-0.24945	-0.610865	-0.00241763	-0.405232	0.00752823	-0.0658839	0.000864006	-0.122013	-0.178611	2.07588	1.67264	-0.0294271	-0.100422	-0.170789	2.04031	1.79316
0.11	0.235017	0.0211322	0.0571863	-0.578583	0.567674	-0.613717	1.31544	-0.32242	0.178177	1.71282	0.0553254	-0.610865	-0.00241763	1.36056	-0.166662	0.194131	1.66847	-0.249168	-0.610865	-0.00241763	-0.408144	0.00753513	-0.0650507	0.00206009	-0.122749	-0.178644	2.07605	1.67205	-0.0267934	-0.100588	-0.17079	2.04071	1.79552
0.12	0.236684	0.0218915	0.0568152	-0.578813	0.567873	-0.613679	1.31398	-0.322479	0.178477	1.71248	0.0545655	-0.610865	-0.00241763	1.35851	-0.166465	0.193177	1.66788	-0.250517	-0.610865	-0.00241763	-0.411844	0.00709366	-0.0642085	0.00372855	-0.12371	-0.17883	2.07612	1.67198	-0.0231382	-0.101501	-0.170653	2.04058	1.80123
0.13	0.238417	0.0229382	0.0564024	-0.579069	0.56808	-0.613672	1.31252	-0.322541	0.179271	1.71211	0.0541707	-0.610865	-0.00241763	1.35647	-0.166028	0.192038	1.66709	-0.253602	-0.610865	-0.00241763	-0.415963	0.00653118	-0.0633183	0.00576175	-0.12538	-0.179078	2.07629	1.67259	-0.0188988	-0.103384	-0.169568	2.04055	1.80523
0.14	0.239907	0.0237221	0.0561806	-0.579315	0.568276	-0.613728	1.31114	-0.322752	0.179675	1.71164	0.0537071	-0.610865	-0.00241763	1.35482	-0.165451	0.190942	1.66624	-0.25631	-0.610865	-0.00241763	-0.420119	0.0065823	-0.0624661	0.00810244	-0.12783	-0.179096	2.07664	1.67297	-0.0144831	-0.105779	-0.167271	2.04115	1.80396
0.15	0.24173	0.0247665	0.0564635	-0.579606	0.568557	-0.613879	1.30934	-0.323877	0.179856	1.71105	0.0529847	-0.610865	-0.00241763	1.35257	-0.164165	0.189355	1.66531	-0.258209	-0.610865	-0.00241763	-0.425044	0.00674749	-0.0621532	0.011015	-0.130541	-0.17877	2.07675	1.67289	-0.00931619	-0.10812	-0.163994	2.04206	1.79892
0.16	0.244442	0.0268574	0.0572068	-0.580011	0.568982	-0.614104	1.30681	-0.326126	0.180813	1.71039	0.0523524	-0.610865	-0.00241763	1.34883	-0.161748	0.186729	1.66413	-0.260155	-0.610865	-0.00241763	-0.431579	0.00619015	-0.0626948	0.0148159	-0.132976	-0.178399	2.07644	1.67315	-0.00254636	-0.110709	-0.160272	2.04263	1.79475
0.17	0.247601	0.0293104	0.0578333	-0.5805	0.569457	-0.614295	1.30391	-0.328128	0.18238	1.70966	0.0519089	-0.610865	-0.00241763	1.34441	-0.159202	0.183748	1.66283	-0.262247	-0.610865	-0.00241763	-0.439378	0.00556204	-0.0635538	0.0196415	-0.135745	-0.177781	2.07632	1.67396	0.00558855	-0.114516	-0.156371	2.04301	1.79228
0.18	0.250377	0.0309396	0.0579124	-0.580994	0.56989	-0.614373	1.30121	-0.328713	0.183378	1.70872	0.051358	-0.610865	-0.00241763	1.34085	-0.157802	0.181531	1.66157	-0.265818	-0.610865	-0.00241763	-0.447617	0.00601792	-0.0640231	0.0254893	-0.139968	-0.176171	2.07689	1.67499	0.014225	-0.119635	-0.152345	2.04386	1.78961
0.19	0.25254	0.0321747	0.0576618	-0.58151	0.570324	-0.614379	1.29904	-0.328736	0.183744	1.70754	0.0504917	-0.610865	-0.00241763	1.33835	-0.157251	0.179429	1.6601	-0.271424	-0.610865	-0.00241763	-0.455958	0.0068432	-0.0639513	0.0317693	-0.144481	-0.174703	2.07771	1.67585	0.0237995	-0.125002	-0.148436	2.04446	1.7898
0.2	0.254386	0.0344555	0.0575744	-0.582122	0.57083	-0.614393	1.29761	-0.32981	0.184732	1.70629	0.0494312	-0.610865	-0.00241763	1.33582	-0.156065	0.175805	1.65804	-0.277053	-0.610865	-0.00241763	-0.464295	0.00646239	-0.0639185	0.0376781	-0.14707	-0.175199	2.07809	1.67551	0.0354548	-0.12983	-0.144664	2.04365	1.79409
